# Blender 4.2.1 LTS
# www.blender.org
mtllib fundo2.mtl
o Cube
v -150.935562 -25.536491 -0.027018
v -150.935562 42.003395 -0.027023
v -150.935562 -25.536491 0.027022
v -150.935562 42.003395 0.027017
v 150.935562 -25.536491 -0.027018
v 150.935562 42.003395 -0.027023
v 150.935562 -25.536491 0.027022
v 150.935562 42.003395 0.027017
vn -1.0000 -0.0000 -0.0000
vn -0.0000 -0.0000 1.0000
vn 1.0000 -0.0000 -0.0000
vn -0.0000 -0.0000 -1.0000
vn -0.0000 -1.0000 -0.0000
vn -0.0000 1.0000 -0.0000
vt 0.250043 0.000087
vt 0.250043 0.250043
vt 0.500000 0.250043
vt 0.500000 0.000087
vt 0.250043 0.500000
vt 0.500000 0.500000
vt 0.250043 0.749957
vt 0.500000 0.749957
vt 0.250043 0.999913
vt 0.500000 0.999913
vt 0.000087 0.500000
vt 0.000087 0.749957
vt 0.749957 0.749957
vt 0.749957 0.500000
s 0
usemtl Default_OBJ
f 1/1/1 3/2/1 4/3/1 2/4/1
f 3/2/2 7/5/2 8/6/2 4/3/2
f 7/5/3 5/7/3 6/8/3 8/6/3
f 5/7/4 1/9/4 2/10/4 6/8/4
f 3/11/5 1/12/5 5/7/5 7/5/5
f 8/6/6 6/8/6 2/13/6 4/14/6
